<svg width="20" height="17" viewBox="0 0 20 17" fill="none" xmlns="http://www.w3.org/2000/svg">
<path d="M1.67787 1.91549C1.22518 2.36425 0.866086 2.89701 0.621091 3.48334C0.376097 4.06968 0.25 4.69811 0.25 5.33276C0.25 5.9674 0.376097 6.59583 0.621091 7.18217C0.866086 7.7685 1.22518 8.30126 1.67787 8.75002L10 17L18.3221 8.75002C19.2364 7.84371 19.75 6.61448 19.75 5.33276C19.75 4.05103 19.2364 2.82181 18.3221 1.91549C17.4079 1.00917 16.1679 0.500012 14.875 0.500012C13.5821 0.500012 12.3421 1.00917 11.4278 1.91549L10 3.33094L8.57218 1.91549C8.11949 1.46672 7.58208 1.11074 6.99061 0.867874C6.39915 0.625004 5.76522 0.5 5.12502 0.5C4.48483 0.5 3.8509 0.625004 3.25944 0.867874C2.66797 1.11074 2.13055 1.46672 1.67787 1.91549Z" fill="#777E90"/>
</svg>
