<svg width="30" height="30" viewBox="0 0 30 30" fill="none" xmlns="http://www.w3.org/2000/svg">
<path fill-rule="evenodd" clip-rule="evenodd" d="M25.4401 9.09002L29.3101 18.18L29.4001 18.54C29.4001 21.18 27.2701 23.31 24.6301 23.31C21.9901 23.31 19.8601 21.15 19.8601 18.54C19.8601 18.42 19.8601 18.3 19.9201 18.18L23.2801 10.35H17.6401C17.3701 11.16 16.7401 11.79 15.9301 12.09V26.25H20.0001V28.125H10.0001V26.25H14.1301V12.12C13.2901 11.85 12.6301 11.19 12.3601 10.35H6.75013L10.1101 18.21L10.1101 18.21C10.1401 18.33 10.1701 18.45 10.1701 18.57C10.1701 21.21 8.04013 23.34 5.40013 23.34C2.76013 23.34 0.630127 21.18 0.630127 18.57C0.630127 18.45 0.630127 18.33 0.690127 18.21L4.53013 9.09002C4.68013 8.76002 5.01013 8.55002 5.37013 8.55002H12.3601C12.6601 7.74002 13.2901 7.11002 14.1001 6.84002V3.15002H15.9001V6.87002C16.6801 7.14002 17.3101 7.77002 17.5801 8.55002H24.6001C24.9601 8.55002 25.2901 8.76002 25.4401 9.09002ZM24.6001 11.73L22.1101 17.64H27.0901L24.6001 11.73ZM5.37013 11.73L2.88013 17.64H7.86013L5.37013 11.73Z" fill="#777E90"/>
</svg>
